<svg width="2071" height="2500" viewBox="0 0 256 309" xmlns="http://www.w3.org/2000/svg" preserveAspectRatio="xMidYMid"><path d="M255.991 100.211l-4.112-.069-123.792-36.65-.074-1.696V0L256 64.006l-.009 36.205" fill="#D9A741"/><path d="M128 65.5l.013-65.5L.017 63.981 0 244.996l.064.032v.002l127.923 63.973.425-.591-.165-60.871-.251-.339L120 241.5 21 212l.5-114.5 106.5-32" fill="#876929"/><path d="M147.141 195.298l-130.79 18.399.009-118.417 130.79 18.424-.009 81.594" fill="#D9A741"/><path d="M80.864 187.813l47.132 6 .008-78.658-47.131 5.995-.009 66.663M33.385 181.771l30.587 3.888.009-62.363-30.596 3.897v54.578" fill="#876929"/><path d="M16.36 95.28l111.653-33.484 127.978 38.415-108.76 13.502L16.36 95.28" fill="#624A1E"/><path d="M255.927 177.376l-127.931 16.145.008-78.366 127.923 16.296v45.925M255.918 208.834l-2.753.119-124.776 37.77-.393.479-.009 61.801 127.931-63.951v-36.218" fill="#D9A741"/><path d="M16.351 213.697l111.645 33.505 127.922-38.368-108.777-13.536-130.79 18.399" fill="#FAD791"/></svg>