<?xml version="1.0" encoding="UTF-8" standalone="no"?>
<svg
   xmlns:dc="http://purl.org/dc/elements/1.1/"
   xmlns:cc="http://creativecommons.org/ns#"
   xmlns:rdf="http://www.w3.org/1999/02/22-rdf-syntax-ns#"
   xmlns:svg="http://www.w3.org/2000/svg"
   xmlns="http://www.w3.org/2000/svg"
   xmlns:sodipodi="http://sodipodi.sourceforge.net/DTD/sodipodi-0.dtd"
   xmlns:inkscape="http://www.inkscape.org/namespaces/inkscape"
   inkscape:version="1.0 (4035a4fb49, 2020-05-01)"
   sodipodi:docname="java.svg"
   id="svg22"
   xml:space="preserve"
   width="512px"
   viewBox="0 0 512 512"
   version="1.1"
   style="enable-background:new 0 0 512 512;"
   height="512px"><metadata
     id="metadata28"><rdf:RDF><cc:Work
         rdf:about=""><dc:format>image/svg+xml</dc:format><dc:type
           rdf:resource="http://purl.org/dc/dcmitype/StillImage" /></cc:Work></rdf:RDF></metadata><defs
     id="defs26" /><sodipodi:namedview
     inkscape:current-layer="svg22"
     inkscape:window-maximized="1"
     inkscape:window-y="-8"
     inkscape:window-x="1912"
     inkscape:cy="326.86895"
     inkscape:cx="-81.816562"
     inkscape:zoom="0.58695387"
     showgrid="false"
     id="namedview24"
     inkscape:window-height="1017"
     inkscape:window-width="1920"
     inkscape:pageshadow="2"
     inkscape:pageopacity="0"
     guidetolerance="10"
     gridtolerance="10"
     objecttolerance="10"
     borderopacity="1"
     bordercolor="#666666"
     pagecolor="#ffffff" /><g
     transform="matrix(1.1000015,0,0,1.1000001,-25.682342,-28.600003)"
     id="_x31_81-java"><g
       id="g18"><path
         id="path2"
         style="fill:#5382a1"
         d="m 333.283,307.117 c 8.807,-6.02 21.023,-11.23 21.023,-11.23 0,0 -34.768,6.29 -69.357,9.165 -42.315,3.503 -87.775,4.221 -110.595,1.167 -53.996,-7.187 29.647,-27.044 29.647,-27.044 0,0 -32.433,-2.154 -72.413,17.07 -47.166,22.821 116.795,33.242 201.695,10.872 z" /><path
         id="path4"
         style="fill:#f8981d"
         d="m 256.56,278.277 c -17.07,-38.362 -74.659,-72.054 0,-130.99 C 349.727,73.797 301.93,26 301.93,26 c 19.316,75.917 -67.92,98.917 -99.456,146.084 -21.473,32.253 10.512,66.843 54.086,106.193 z" /><path
         id="path6"
         style="fill:#f8981d"
         d="m 359.518,119.975 c 0.09,0 -157.403,39.351 -82.205,125.958 22.191,25.516 -5.84,48.516 -5.84,48.516 0,0 56.332,-29.108 30.457,-65.495 -24.168,-33.961 -42.676,-50.851 57.588,-108.979 z" /><path
         id="path8"
         style="fill:#5382a1"
         d="m 354.039,362.999 c -0.449,1.078 -1.797,2.247 -1.797,2.336 115.266,-30.277 72.861,-106.824 17.787,-87.416 -4.852,1.707 -7.365,5.66 -7.365,5.66 0,0 3.053,-1.259 9.883,-2.696 27.849,-5.839 67.83,37.285 -18.508,82.116 z" /><path
         id="path10"
         style="fill:#5382a1"
         d="m 396.443,418.971 c 0,0 13.027,10.692 -14.285,19.047 -52.018,15.722 -216.339,20.483 -261.979,0.63 -16.441,-7.099 14.374,-17.072 24.078,-19.137 10.061,-2.157 15.901,-1.799 15.901,-1.799 -18.238,-12.847 -117.963,25.247 -50.671,36.119 183.458,29.826 334.574,-13.388 286.956,-34.86 z" /><path
         id="path12"
         style="fill:#5382a1"
         d="m 195.557,381.776 c -70.706,19.766 43.035,60.555 133.055,22.011 -14.732,-5.748 -25.334,-12.397 -25.334,-12.397 -40.16,7.637 -58.756,8.175 -95.233,4.043 -30.097,-3.414 -12.488,-13.657 -12.488,-13.657 z" /><path
         id="path14"
         style="fill:#5382a1"
         d="m 357.092,469.103 c -70.705,13.296 -157.941,11.771 -209.602,3.233 0,-0.088 10.602,8.716 65.046,12.22 82.834,5.302 210.051,-2.966 213.016,-42.136 10e-4,0 -5.749,14.825 -68.46,26.683 z" /><path
         id="path16"
         style="fill:#5382a1"
         d="m 317.922,343.144 c -53.188,10.243 -84.003,9.973 -122.904,5.93 -30.098,-3.145 -10.422,-17.698 -10.422,-17.698 -77.982,25.874 43.304,55.164 152.281,23.269 -11.588,-4.044 -18.955,-11.501 -18.955,-11.501 z" /></g></g><g
     id="Layer_1" /></svg>
