<?xml version="1.0" ?><svg enable-background="new 0 0 1300 1300" id="Layer_1" version="1.1" viewBox="0 0 1300 1300" xml:space="preserve" xmlns="http://www.w3.org/2000/svg" xmlns:xlink="http://www.w3.org/1999/xlink"><linearGradient gradientTransform="matrix(-1 0 0 -1 -1645.4375 1292.1875)" gradientUnits="userSpaceOnUse" id="SVGID_1_" x1="-2415.4131" x2="-2178.2351" y1="1314.3976" y2="-30.7057"><stop offset="0" style="stop-color:#FAAE42"/><stop offset="1" style="stop-color:#EF3E31"/></linearGradient><path d="M301.887,22.842h699c153.535,0,278,124.465,278,278v699c0,153.535-124.465,278-278,278h-699  c-153.535,0-278-124.465-278-278v-699C23.887,147.306,148.351,22.842,301.887,22.842z" fill="url(#SVGID_1_)"/><linearGradient gradientUnits="userSpaceOnUse" id="SVGID_2_" x1="664.0621" x2="490.4914" y1="43.0317" y2="1027.4001"><stop offset="0" style="stop-color:#E39F3A"/><stop offset="1" style="stop-color:#D33929"/></linearGradient><path d="M1083.237,1049.668c0,0-48.74-81.23-129.97-81.23c-78.53,0-124.56,81.23-282.97,81.23  c-350.64,0-517.25-291.51-518.54-293.79c0-0.01-0.01-0.01-0.01-0.01l-128.86-138.71v-316.41c0-153.54,124.46-278,278-278h248.14  l183.55,186.14c0.01,0,0.01,0.01,0.02,0.02c414.28,281.61,280.24,591.64,280.24,591.64S1130.627,933.228,1083.237,1049.668z" fill="url(#SVGID_2_)"/><path d="M733.574,208.983c414.297,281.614,280.26,591.66,280.26,591.66s117.79,132.683,70.404,249.12  c0,0-48.741-81.235-129.976-81.235c-78.527,0-124.56,81.235-282.968,81.235c-352.017,0-518.549-293.799-518.549-293.799  c316.959,208.859,533.442,60.926,533.442,60.926c-142.986-83.056-446.791-479.285-446.791-479.285  c264.807,225.238,379.096,284.322,379.096,284.322C550.074,565.592,358.54,290.218,358.54,290.218  C511.793,445.279,816.163,661.19,816.163,661.19C902.981,422.524,733.574,208.983,733.574,208.983z" fill="#FFFFFF"/><g/><g/><g/><g/><g/><g/></svg>