<?xml version="1.0" encoding="UTF-8"?> <!-- Generator: Adobe Illustrator 24.0.0, SVG Export Plug-In . SVG Version: 6.00 Build 0) --> <svg xmlns="http://www.w3.org/2000/svg" xmlns:xlink="http://www.w3.org/1999/xlink" id="Layer_1" x="0px" y="0px" viewBox="0 0 120 135" style="enable-background:new 0 0 120 135;" xml:space="preserve"> <style type="text/css"> .st0{fill:#F47C20;} .st1{fill:#FFFFFF;} </style> <g> <path class="st0" d="M52,4.6L9.6,29.2c-4.9,2.9-8,8.1-8,13.8v49c0,5.7,3,11,8,13.8L52,130.4c4.9,2.9,11,2.9,16,0l42.5-24.5 c4.9-2.9,8-8.1,8-13.8V43c0-5.7-3-11-8-13.8L68,4.6C63,1.8,57,1.8,52,4.6z"></path> <polygon class="st1" points="91.5,94.2 88.5,84.4 79.7,87.1 58.7,35 58.7,35 58.7,35 42.6,35 42.6,45.2 51.1,45.2 54.8,56 54.8,56 28.5,96.6 41.4,96.6 60,69.1 72.3,100 72.3,100 72.4,100 "></polygon> </g> </svg> 