<?xml version="1.0" encoding="UTF-8" standalone="no"?>
<svg
   xmlns:dc="http://purl.org/dc/elements/1.1/"
   xmlns:cc="http://creativecommons.org/ns#"
   xmlns:rdf="http://www.w3.org/1999/02/22-rdf-syntax-ns#"
   xmlns:svg="http://www.w3.org/2000/svg"
   xmlns="http://www.w3.org/2000/svg"
   xmlns:sodipodi="http://sodipodi.sourceforge.net/DTD/sodipodi-0.dtd"
   xmlns:inkscape="http://www.inkscape.org/namespaces/inkscape"
   inkscape:version="1.0 (4035a4fb49, 2020-05-01)"
   sodipodi:docname="cache.svg"
   id="svg4"
   version="1.1"
   viewBox="0 0 20 20">
  <metadata
     id="metadata10">
    <rdf:RDF>
      <cc:Work
         rdf:about="">
        <dc:format>image/svg+xml</dc:format>
        <dc:type
           rdf:resource="http://purl.org/dc/dcmitype/StillImage" />
      </cc:Work>
    </rdf:RDF>
  </metadata>
  <defs
     id="defs8" />
  <sodipodi:namedview
     inkscape:current-layer="svg4"
     inkscape:window-maximized="1"
     inkscape:window-y="-8"
     inkscape:window-x="1912"
     inkscape:cy="13.626686"
     inkscape:cx="3.5768273"
     inkscape:zoom="22.627417"
     showgrid="false"
     id="namedview6"
     inkscape:window-height="1017"
     inkscape:window-width="1920"
     inkscape:pageshadow="2"
     inkscape:pageopacity="0"
     guidetolerance="10"
     gridtolerance="10"
     objecttolerance="10"
     borderopacity="1"
     bordercolor="#666666"
     pagecolor="#ffffff"
     inkscape:document-rotation="0" />
  <path
     d="M 9.8242188 0.072265625 A 7.9998259 1.7713014 0 0 0 2 1.84375 L 2 18.214844 A 7.9998259 1.7713014 0 0 0 2 18.228516 L 2 18.373047 L 2.0292969 18.373047 A 7.9998259 1.7713014 0 0 0 9.9980469 20 A 7.9998259 1.7713014 0 0 0 17.970703 18.373047 L 18 18.373047 L 18 18.228516 L 18 1.84375 A 7.9998259 1.7713014 0 0 0 9.9980469 0.072265625 A 7.9998259 1.7713014 0 0 0 9.8242188 0.072265625 z M 10.960938 5.703125 L 10.337891 10.224609 L 13.455078 10.224609 L 8.6757812 16.712891 L 9.2988281 12.191406 L 6.1816406 12.191406 L 10.960938 5.703125 z "
     style="fill:#ffffff;fill-opacity:1;stroke:#df9300;stroke-width:0;stroke-linecap:square;stroke-linejoin:round;stroke-miterlimit:3.8;stroke-dasharray:none;stroke-opacity:0;paint-order:stroke markers fill"
     id="path830-9" />
  <ellipse
     style="fill:#bcbcbc;fill-opacity:1;stroke:#df9300;stroke-width:0;stroke-linecap:square;stroke-miterlimit:3.8;stroke-dasharray:none;stroke-opacity:1;paint-order:markers stroke fill"
     id="path879-3"
     cx="9.9936981"
     cy="1.8635355"
     rx="7.979435"
     ry="1.8635349" />
</svg>
