<?xml version="1.0" encoding="UTF-8" standalone="no"?>
<svg
   xmlns:osb="http://www.openswatchbook.org/uri/2009/osb"
   xmlns:dc="http://purl.org/dc/elements/1.1/"
   xmlns:cc="http://creativecommons.org/ns#"
   xmlns:rdf="http://www.w3.org/1999/02/22-rdf-syntax-ns#"
   xmlns:svg="http://www.w3.org/2000/svg"
   xmlns="http://www.w3.org/2000/svg"
   xmlns:sodipodi="http://sodipodi.sourceforge.net/DTD/sodipodi-0.dtd"
   xmlns:inkscape="http://www.inkscape.org/namespaces/inkscape"
   viewBox="0 0 20 20"
   version="1.1"
   id="svg4"
   sodipodi:docname="cdn.svg"
   inkscape:version="1.0 (4035a4fb49, 2020-05-01)">
  <metadata
     id="metadata10">
    <rdf:RDF>
      <cc:Work
         rdf:about="">
        <dc:format>image/svg+xml</dc:format>
        <dc:type
           rdf:resource="http://purl.org/dc/dcmitype/StillImage" />
      </cc:Work>
    </rdf:RDF>
  </metadata>
  <defs
     id="defs8">
    <linearGradient
       osb:paint="solid"
       id="linearGradient845">
      <stop
         id="stop843"
         offset="0"
         style="stop-color:#bcbcbc;stop-opacity:1;" />
    </linearGradient>
  </defs>
  <sodipodi:namedview
     inkscape:document-rotation="0"
     pagecolor="#ffffff"
     bordercolor="#666666"
     borderopacity="1"
     objecttolerance="10"
     gridtolerance="10"
     guidetolerance="10"
     inkscape:pageopacity="0"
     inkscape:pageshadow="2"
     inkscape:window-width="1920"
     inkscape:window-height="1017"
     id="namedview6"
     showgrid="false"
     inkscape:zoom="22.627417"
     inkscape:cx="1.96374"
     inkscape:cy="13.626686"
     inkscape:window-x="1912"
     inkscape:window-y="-8"
     inkscape:window-maximized="1"
     inkscape:current-layer="svg4" />
  <g
     id="g8"
     transform="matrix(0.22608168,0,0,0.22634533,-0.19298898,-0.3671848)"
     style="fill:#ffffff;fill-opacity:1;stroke:#fffffd;stroke-width:2.16435;stroke-miterlimit:4;stroke-dasharray:none;stroke-opacity:1">
    <g
       id="g6"
       style="fill:#ffffff;fill-opacity:1;stroke:#fffffd;stroke-width:2.16435;stroke-miterlimit:4;stroke-dasharray:none;stroke-opacity:1">
      <g
         id="g4"
         style="fill:#ffffff;fill-opacity:1;stroke:#fffffd;stroke-width:2.16435;stroke-miterlimit:4;stroke-dasharray:none;stroke-opacity:1">
        <path
           d="m 87.2,36.5 c 0,-0.1 0,-0.2 -0.1,-0.3 -1.1,-4.8 -3,-9.4 -5.7,-13.6 0,-0.1 -0.1,-0.1 -0.1,-0.1 0.4,-2.2 0.1,-4.4 -1,-6.3 C 79.1,14 77.1,12.5 74.7,11.8 73.5,11.5 72.3,11.4 71.1,11.5 L 71,11.4 C 66.8,8.2 62,5.8 56.8,4.3 50.8,2.6 44.8,2.3 38.9,3.2 h -0.1 c -10.6,1.6 -20.4,7 -27.4,15.8 0,0.1 -0.1,0.1 -0.1,0.2 -4.1,0 -7.8,2.7 -9,6.8 -0.7,2.4 -0.4,4.9 0.9,7.1 0.2,0.3 0.4,0.6 0.6,0.8 C 3.7,34 3.7,34.1 3.6,34.2 0.5,45.3 1.9,57 7.5,67 c 0.2,0.4 0.4,0.8 0.7,1.1 v 0 c 5.7,9.4 14.6,16.3 25.3,19.2 3.9,1.1 7.8,1.6 11.7,1.6 7.3,0 14.5,-1.9 21.1,-5.6 10,-5.6 17.3,-14.9 20.4,-26 1.9,-6.7 2,-13.9 0.5,-20.8 z M 79.7,65 C 78.1,64.5 76.6,64 75,63.4 75.1,62 74.8,60.6 74.2,59.2 c 2.9,-0.9 5.7,-1.1 8.3,-0.8 -0.8,2.3 -1.7,4.5 -2.8,6.6 z M 60.8,65.8 C 60.1,64.5 59.9,63 60.3,61.5 60.7,60 61.7,58.8 63,58.1 c 0.9,-0.5 1.8,-0.7 2.8,-0.7 0.5,0 1,0.1 1.5,0.2 1.5,0.4 2.7,1.4 3.4,2.7 0.7,1.3 0.9,2.8 0.5,4.3 -0.8,3 -4,4.8 -7,3.9 -1.5,-0.5 -2.7,-1.4 -3.4,-2.7 z m 11.1,-9.7 c -1,-0.9 -2.3,-1.7 -3.7,-2 -2.4,-0.7 -4.9,-0.4 -7.1,0.9 -0.2,0.1 -0.4,0.3 -0.7,0.5 -4.6,-3.4 -8.6,-7.4 -11.9,-11.9 1,-1.1 1.7,-2.3 2.1,-3.8 0.3,-1 0.4,-2.1 0.3,-3.1 10.5,-1.8 21.8,-1.3 32.8,1.7 1.1,5.5 1,11.1 -0.3,16.6 -3.5,-0.8 -7.5,-0.4 -11.5,1.1 z M 39,32.2 c 0.9,-0.5 1.8,-0.7 2.8,-0.7 0.5,0 1,0.1 1.5,0.2 1.5,0.4 2.7,1.4 3.4,2.7 0.7,1.3 0.9,2.8 0.5,4.3 -0.4,1.5 -1.4,2.7 -2.7,3.4 -1.3,0.7 -2.8,0.9 -4.3,0.5 -3,-0.8 -4.8,-4 -3.9,-7 0.4,-1.4 1.4,-2.6 2.7,-3.4 z M 73.8,15.4 c 1.5,0.4 2.7,1.4 3.4,2.7 0.7,1.3 0.9,2.8 0.5,4.3 -0.8,3 -4,4.8 -7,3.9 -1.5,-0.4 -2.7,-1.4 -3.4,-2.7 -0.7,-1.3 -0.9,-2.8 -0.5,-4.3 0.4,-1.5 1.4,-2.7 2.7,-3.4 0.9,-0.5 1.8,-0.7 2.8,-0.7 0.5,-0.1 1,0 1.5,0.2 z m -18,-7.5 c 4.1,1.1 7.8,2.9 11.3,5.2 -1.8,1.2 -3.2,3 -3.8,5.2 -0.7,2.4 -0.4,4.9 0.9,7.1 1.2,2.2 3.2,3.7 5.6,4.4 0.8,0.2 1.7,0.3 2.5,0.3 2.9,0 5.5,-1.3 7.3,-3.5 1.4,2.4 2.4,5 3.3,7.6 C 71.9,31.5 60.7,31.1 50.2,33 50.1,32.9 50.1,32.7 50,32.6 48.8,30.4 46.8,28.9 44.4,28.2 43.3,27.9 42.2,27.8 41,27.9 39,20.9 38.9,13.6 40.6,6.7 45.5,6.1 50.7,6.5 55.8,7.9 Z M 36.6,7.4 c -1.5,7.1 -1.2,14.5 0.8,21.6 -0.1,0 -0.1,0.1 -0.2,0.1 -2.2,1.2 -3.7,3.2 -4.4,5.6 -0.4,1.3 -0.4,2.7 -0.2,4 -2.1,1.1 -4.2,2.2 -6,3.5 -1.9,-3.8 -4.4,-7 -7,-9.3 0.3,-0.6 0.6,-1.2 0.7,-1.8 1.2,-4.4 -1,-9 -5,-10.9 C 21,13.5 28.5,9.2 36.6,7.4 Z M 5.9,27 c 0.7,-2.5 3,-4.1 5.4,-4.1 0.5,0 1,0.1 1.5,0.2 3,0.8 4.8,4 3.9,7 -0.4,1.5 -1.4,2.7 -2.7,3.4 C 12.7,34.2 11.2,34.4 9.7,34 8.2,33.6 7,32.6 6.3,31.3 5.6,30 5.5,28.4 5.9,27 Z m 0.9,9.6 c 0.6,0.4 1.3,0.7 2,0.9 0.8,0.2 1.7,0.4 2.5,0.4 1.6,0 3.1,-0.4 4.6,-1.2 0.5,-0.3 0.9,-0.6 1.3,-0.9 2.3,2.1 4.5,5 6.3,8.7 -6.4,5 -11.2,11.2 -14,18.3 C 5.6,54.5 4.6,45.4 6.8,36.6 Z m 5,30.4 c 2.2,-7.4 6.7,-13.9 13.1,-19.1 0.7,2.3 1.2,4.8 1.3,7.5 -1.2,0.1 -2.4,0.5 -3.5,1.1 -2.2,1.2 -3.7,3.2 -4.4,5.6 -0.7,2.4 -0.4,4.9 0.9,7.1 1.2,2.2 3.2,3.7 5.6,4.4 0.3,0.1 0.6,0.1 1,0.2 -0.3,1.9 -0.7,3.8 -1.2,5.7 -5.1,-3 -9.5,-7.3 -12.8,-12.5 z m 14,3.1 c -1.5,-0.4 -2.7,-1.4 -3.4,-2.7 -0.7,-1.3 -0.9,-2.8 -0.5,-4.3 0.4,-1.5 1.4,-2.7 2.7,-3.4 0.9,-0.5 1.8,-0.7 2.8,-0.7 0.5,0 1,0.1 1.5,0.2 3,0.8 4.8,4 3.9,7 -0.4,1.5 -1.4,2.7 -2.7,3.4 -1.3,0.8 -2.8,0.9 -4.3,0.5 z m 8.7,13.8 c -2.3,-0.6 -4.4,-1.5 -6.5,-2.5 0.7,-2.5 1.2,-5.1 1.6,-7.7 0.8,-0.2 1.6,-0.5 2.4,-0.9 2.2,-1.2 3.7,-3.2 4.4,-5.6 C 37.8,62.3 34.9,57.1 30,55.7 29.9,52 29.2,48.6 28.1,45.6 c 1.8,-1.3 3.8,-2.4 5.9,-3.5 1.2,1.9 3,3.4 5.4,4 0.8,0.2 1.7,0.4 2.5,0.4 1.3,0 2.6,-0.3 3.8,-0.9 3.4,4.6 7.5,8.8 12.2,12.4 -0.5,0.8 -0.9,1.6 -1.2,2.5 -0.7,2.4 -0.4,4.9 0.9,7.1 0,0.1 0.1,0.1 0.1,0.1 -3.8,5.1 -5.6,10.5 -5.7,17.1 -5.8,1 -11.7,0.7 -17.5,-0.9 z m 30,-3.6 c -2.8,1.6 -5.8,2.8 -8.8,3.7 0.2,-5.1 1.7,-9.3 4.6,-13.4 0.9,0.7 1.9,1.2 3,1.5 0.8,0.2 1.7,0.3 2.5,0.3 3.6,0 6.9,-2.1 8.5,-5.4 1.2,0.4 2.3,0.9 3.5,1.2 -3.5,4.9 -8,9.1 -13.3,12.1 z"
           id="path2"
           style="fill:#ffffff;fill-opacity:1;stroke:#fffffd;stroke-width:2.16435;stroke-miterlimit:4;stroke-dasharray:none;stroke-opacity:1" />
      </g>
    </g>
  </g>
</svg>
