<?xml version="1.0" encoding="UTF-8" standalone="no"?>
<svg
   xmlns:dc="http://purl.org/dc/elements/1.1/"
   xmlns:cc="http://creativecommons.org/ns#"
   xmlns:rdf="http://www.w3.org/1999/02/22-rdf-syntax-ns#"
   xmlns:svg="http://www.w3.org/2000/svg"
   xmlns="http://www.w3.org/2000/svg"
   xmlns:sodipodi="http://sodipodi.sourceforge.net/DTD/sodipodi-0.dtd"
   xmlns:inkscape="http://www.inkscape.org/namespaces/inkscape"
   inkscape:version="1.0 (4035a4fb49, 2020-05-01)"
   height="20"
   width="20"
   sodipodi:docname="apigateway.svg"
   id="svg25"
   version="1.1"
   viewBox="0 0 20 20">
  <metadata
     id="metadata31">
    <rdf:RDF>
      <cc:Work
         rdf:about="">
        <dc:format>image/svg+xml</dc:format>
        <dc:type
           rdf:resource="http://purl.org/dc/dcmitype/StillImage" />
        <dc:title></dc:title>
      </cc:Work>
    </rdf:RDF>
  </metadata>
  <defs
     id="defs29" />
  <sodipodi:namedview
     scale-x="1"
     inkscape:current-layer="svg25"
     inkscape:window-maximized="1"
     inkscape:window-y="-8"
     inkscape:window-x="1912"
     inkscape:cy="19.3415"
     inkscape:cx="-5.8347754"
     inkscape:zoom="13.28125"
     showgrid="false"
     id="namedview27"
     inkscape:window-height="1017"
     inkscape:window-width="1920"
     inkscape:pageshadow="2"
     inkscape:pageopacity="0"
     guidetolerance="10"
     gridtolerance="10"
     objecttolerance="10"
     borderopacity="1"
     bordercolor="#666666"
     pagecolor="#ffffff" />
  <g
     transform="matrix(0.64129285,0,0,0.70212392,-0.23856094,-2.4311041)"
     style="fill:#df9300;fill-opacity:1"
     id="Gate">
    <path
       id="path4"
       style="fill:#df9300;fill-opacity:1"
       d="m 6.5075,10.9 h -4.264 v 15.119 h 4.16 l 0.104,0.156 0.364,0.572 h 1.573 V 12.6155 a 10.8413,10.8413 0 0 0 -1.937,2.535 z" />
    <polygon
       id="polygon6"
       style="fill:#df9300;fill-opacity:1"
       points="6.793,9.6 4.376,6.311 1.957,9.6 " />
    <polygon
       id="polygon8"
       style="fill:#df9300;fill-opacity:1"
       points="29.972,9.6 27.555,6.311 25.137,9.6 " />
    <path
       id="path10"
       style="fill:#df9300;fill-opacity:1"
       d="m 9.7445,13.1875 v 13.559 h 2.158 v -16.406 a 10.8429,10.8429 0 0 0 -2.158,1.183 z" />
    <path
       id="path12"
       style="fill:#df9300;fill-opacity:1"
       d="m 25.4225,26.1745 v -0.156 h 4.251 V 10.9 h -4.251 v 4.303 a 10.3549,10.3549 0 0 0 -1.833,-2.457 v 14.001 h 1.469 z" />
    <path
       id="path14"
       style="fill:#df9300;fill-opacity:1"
       d="m 20.1315,11.8355 v 14.911 H 22.29 v -15.132 a 10.636,10.636 0 0 0 -2.158,-1.222 z" />
    <path
       id="path16"
       style="fill:#df9300;fill-opacity:1"
       d="m 13.2025,11.2635 v 15.483 h 2.171 V 9.5735 a 9.3344,9.3344 0 0 0 -2.171,0.338 z" />
    <path
       id="path18"
       style="fill:#df9300;fill-opacity:1"
       d="m 16.6735,10.8865 v 15.86 h 2.158 V 9.9375 a 10.5422,10.5422 0 0 0 -2.158,-0.364 z" />
    <polygon
       id="polygon20"
       style="fill:#df9300;fill-opacity:1"
       points="30.414,27.319 24.695,27.319 23.538,29.099 31.559,29.099 " />
    <polygon
       id="polygon22"
       style="fill:#df9300;fill-opacity:1"
       points="1.516,27.319 0.372,29.099 8.38,29.099 7.235,27.319 " />
  </g>
</svg>
