<?xml version="1.0" encoding="UTF-8" standalone="no"?>
<svg
   xmlns:dc="http://purl.org/dc/elements/1.1/"
   xmlns:cc="http://creativecommons.org/ns#"
   xmlns:rdf="http://www.w3.org/1999/02/22-rdf-syntax-ns#"
   xmlns:svg="http://www.w3.org/2000/svg"
   xmlns="http://www.w3.org/2000/svg"
   xmlns:sodipodi="http://sodipodi.sourceforge.net/DTD/sodipodi-0.dtd"
   xmlns:inkscape="http://www.inkscape.org/namespaces/inkscape"
   viewBox="0 0 20 20"
   version="1.1"
   id="svg4"
   sodipodi:docname="proxy.svg"
   inkscape:version="1.0 (4035a4fb49, 2020-05-01)">
  <metadata
     id="metadata10">
    <rdf:RDF>
      <cc:Work
         rdf:about="">
        <dc:format>image/svg+xml</dc:format>
        <dc:type
           rdf:resource="http://purl.org/dc/dcmitype/StillImage" />
      </cc:Work>
    </rdf:RDF>
  </metadata>
  <defs
     id="defs8" />
  <sodipodi:namedview
     inkscape:document-rotation="0"
     pagecolor="#ffffff"
     bordercolor="#666666"
     borderopacity="1"
     objecttolerance="10"
     gridtolerance="10"
     guidetolerance="10"
     inkscape:pageopacity="0"
     inkscape:pageshadow="2"
     inkscape:window-width="1920"
     inkscape:window-height="1017"
     id="namedview6"
     showgrid="false"
     inkscape:zoom="7.5130095"
     inkscape:cx="-5.0369764"
     inkscape:cy="7.0998556"
     inkscape:window-x="1912"
     inkscape:window-y="-8"
     inkscape:window-maximized="1"
     inkscape:current-layer="g7" />
  <g
     style="fill:#ff6680;fill-opacity:1"
     transform="matrix(0.34883924,0,0,0.34883315,-2.2760989,-3.5562619)"
     id="g7">
    <path
       sodipodi:nodetypes="cccscccscccc"
       d="m 12.258079,57.495287 v 5.733398 h 14.019077 c -0.411061,-0.771689 -0.649475,-1.621751 -0.649475,-2.523291 0,-1.180895 0.411724,-2.272075 1.09291,-3.210107 z m 31.141939,-0.02385 c 0.681185,0.938032 1.092909,2.029212 1.092909,3.210107 0,0.90154 -0.238413,1.751602 -0.649475,2.523291 l 14.281026,0.02385 v -5.733398 z"
       style="fill:#df9300;fill-opacity:1;stroke:#df9300;stroke-width:0;stroke-linecap:round;stroke-linejoin:bevel;paint-order:markers fill stroke"
       id="rect905" />
    <path
       d="m 35.191278,53.195237 a 7.165149,7.1652733 0 0 0 -7.166624,7.166749 7.165149,7.1652733 0 0 0 7.166624,7.16675 7.165149,7.1652733 0 0 0 7.166624,-7.16675 7.165149,7.1652733 0 0 0 -7.166624,-7.166749 z m 0,3.395553 a 3.7711308,3.7711965 0 0 1 3.771131,3.771196 3.7711308,3.7711965 0 0 1 -3.771131,3.771197 3.7711308,3.7711965 0 0 1 -3.771131,-3.771197 3.7711308,3.7711965 0 0 1 3.771131,-3.771196 z"
       style="fill:#df9300;stroke:#df9300;stroke-width:0;stroke-linecap:round;paint-order:markers fill stroke"
       id="path838" />
    <rect
       rx="0"
       ry="0"
       y="44.595139"
       x="33.04129"
       height="9.1575556"
       width="4.299974"
       id="rect858"
       style="fill:#df9300;fill-opacity:1;stroke:#df9300;stroke-width:0;stroke-linecap:round;paint-order:markers fill stroke" />
    <rect
       ry="13.071838"
       y="15.924866"
       x="9.3882084"
       height="26.143677"
       width="51.606136"
       id="rect915"
       style="fill:#df9300;fill-opacity:0;stroke:#df9300;stroke-width:5.72686;stroke-linecap:round;stroke-miterlimit:4;stroke-dasharray:none;paint-order:markers fill stroke" />
    <rect
       style="fill:#df9300;fill-opacity:0.993789;stroke:#df9300;stroke-width:0;stroke-linecap:round;stroke-miterlimit:4;stroke-dasharray:none;paint-order:markers fill stroke"
       id="rect917-9"
       width="5.7332993"
       height="5.7333994"
       x="29.457979"
       y="25.961586"
       ry="2.8666997" />
    <rect
       ry="2.8666997"
       y="25.961586"
       x="17.991379"
       height="5.7333994"
       width="5.7332993"
       id="rect917-9-1"
       style="fill:#df9300;fill-opacity:0.993789;stroke:#df9300;stroke-width:0;stroke-linecap:round;stroke-miterlimit:4;stroke-dasharray:none;paint-order:markers fill stroke" />
  </g>
</svg>
