<?xml version="1.0" encoding="UTF-8" standalone="no"?>
<svg
   xmlns:dc="http://purl.org/dc/elements/1.1/"
   xmlns:cc="http://creativecommons.org/ns#"
   xmlns:rdf="http://www.w3.org/1999/02/22-rdf-syntax-ns#"
   xmlns:svg="http://www.w3.org/2000/svg"
   xmlns="http://www.w3.org/2000/svg"
   xmlns:sodipodi="http://sodipodi.sourceforge.net/DTD/sodipodi-0.dtd"
   xmlns:inkscape="http://www.inkscape.org/namespaces/inkscape"
   inkscape:version="1.0 (4035a4fb49, 2020-05-01)"
   sodipodi:docname="send.svg"
   id="svg4"
   version="1.1"
   viewBox="0 0 20 20">
  <metadata
     id="metadata10">
    <rdf:RDF>
      <cc:Work
         rdf:about="">
        <dc:format>image/svg+xml</dc:format>
        <dc:type
           rdf:resource="http://purl.org/dc/dcmitype/StillImage" />
      </cc:Work>
    </rdf:RDF>
  </metadata>
  <defs
     id="defs8" />
  <sodipodi:namedview
     inkscape:current-layer="g7"
     inkscape:window-maximized="1"
     inkscape:window-y="-8"
     inkscape:window-x="1912"
     inkscape:cy="11.151974"
     inkscape:cx="3.811014"
     inkscape:zoom="30.052038"
     showgrid="false"
     id="namedview6"
     inkscape:window-height="1017"
     inkscape:window-width="1920"
     inkscape:pageshadow="2"
     inkscape:pageopacity="0"
     guidetolerance="10"
     gridtolerance="10"
     objecttolerance="10"
     borderopacity="1"
     bordercolor="#666666"
     pagecolor="#ffffff"
     inkscape:document-rotation="0" />
  <g
     id="g7"
     transform="matrix(0.34883924,0,0,0.34883315,-2.2760989,-3.5562619)"
     style="fill:#ff6680;fill-opacity:1">
    <g
       id="g855"
       transform="matrix(0.49681014,0,0,0.52767081,-14.444208,-13.909147)"
       style="fill:#df9300;fill-opacity:1;stroke:#df9300;stroke-width:8.26893;stroke-miterlimit:4;stroke-dasharray:none;stroke-opacity:1">
      <path
         id="path842"
         d="m 50.21,150.2 a 3.89,3.89 0 0 1 -3.62,-5.29 l 17.3,-44.81 a 0.37,0.37 0 0 0 0,-0.21 l -17.3,-44.8 a 3.89,3.89 0 0 1 5.27,-4.93 l 99.57,46.32 v 0 a 3.9,3.9 0 0 1 0,7.06 l -99.57,46.3 a 4,4 0 0 1 -1.65,0.36 z m 0,-96.81 a 0.27,0.27 0 0 0 -0.19,0.09 0.26,0.26 0 0 0 -0.07,0.31 l 17.3,44.81 a 4,4 0 0 1 0,2.8 L 50,146.21 a 0.29,0.29 0 0 0 0.39,0.36 l 99.57,-46.31 a 0.29,0.29 0 0 0 0,-0.52 L 50.34,53.42 a 0.35,0.35 0 0 0 -0.13,-0.03 z"
         style="fill:#df9300;fill-opacity:1;stroke:#df9300;stroke-width:8.26893;stroke-miterlimit:4;stroke-dasharray:none;stroke-opacity:1" />
      <path
         id="path844"
         d="M 114.48,101.8 H 65.86 a 1.8,1.8 0 0 1 0,-3.6 h 48.62 a 1.8,1.8 0 0 1 0,3.6 z"
         style="fill:#df9300;fill-opacity:1;stroke:#df9300;stroke-width:8.26893;stroke-miterlimit:4;stroke-dasharray:none;stroke-opacity:1" />
    </g>
  </g>
</svg>
