<?xml version="1.0" encoding="UTF-8" standalone="no"?>
<svg
   xmlns:dc="http://purl.org/dc/elements/1.1/"
   xmlns:cc="http://creativecommons.org/ns#"
   xmlns:rdf="http://www.w3.org/1999/02/22-rdf-syntax-ns#"
   xmlns:svg="http://www.w3.org/2000/svg"
   xmlns="http://www.w3.org/2000/svg"
   xmlns:sodipodi="http://sodipodi.sourceforge.net/DTD/sodipodi-0.dtd"
   xmlns:inkscape="http://www.inkscape.org/namespaces/inkscape"
   inkscape:version="1.0 (4035a4fb49, 2020-05-01)"
   sodipodi:docname="webserver.svg"
   id="svg4"
   version="1.1"
   viewBox="0 0 20 20">
  <metadata
     id="metadata10">
    <rdf:RDF>
      <cc:Work
         rdf:about="">
        <dc:format>image/svg+xml</dc:format>
        <dc:type
           rdf:resource="http://purl.org/dc/dcmitype/StillImage" />
      </cc:Work>
    </rdf:RDF>
  </metadata>
  <defs
     id="defs8" />
  <sodipodi:namedview
     inkscape:current-layer="svg4"
     inkscape:window-maximized="1"
     inkscape:window-y="-8"
     inkscape:window-x="1912"
     inkscape:cy="12.790265"
     inkscape:cx="13.692399"
     inkscape:zoom="21.25"
     showgrid="false"
     id="namedview6"
     inkscape:window-height="1017"
     inkscape:window-width="1920"
     inkscape:pageshadow="2"
     inkscape:pageopacity="0"
     guidetolerance="10"
     gridtolerance="10"
     objecttolerance="10"
     borderopacity="1"
     bordercolor="#666666"
     pagecolor="#ffffff"
     inkscape:document-rotation="0" />
  <path
     style="stroke-width:0.5"
     id="path913"
     fill="#df9300"
     d="m 13,15 c -0.1978,0 -0.3911,0.05865 -0.55555,0.16855 C 12.28,15.2784 12.1518,15.4346 12.0761,15.6173 c -0.0757,0.18275 -0.0955,0.3838 -0.0569,0.5778 0.0386,0.19395 0.13385,0.37215 0.2737,0.512 0.13985,0.13985 0.31805,0.2351 0.512,0.2737 0.194,0.03855 0.39505,0.01875 0.5778,-0.0569 0.1827,-0.0757 0.3389,-0.2039 0.44875,-0.36835 C 13.94135,16.3911 14,16.1978 14,16 14,15.7348 13.89465,15.48045 13.7071,15.2929 13.51955,15.10535 13.2652,15 13,15 Z M 7,15 H 4 C 3.734785,15 3.48043,15.10535 3.292895,15.2929 3.105355,15.48045 3,15.7348 3,16 3,16.2652 3.105355,16.51955 3.292895,16.7071 3.48043,16.89465 3.734785,17 4,17 H 7 C 7.2652,17 7.51955,16.89465 7.7071,16.7071 7.89465,16.51955 8,16.2652 8,16 8,15.7348 7.89465,15.48045 7.7071,15.2929 7.51955,15.10535 7.2652,15 7,15 Z m 9,0 c -0.1978,0 -0.3911,0.05865 -0.55555,0.16855 C 15.28,15.2784 15.1518,15.4346 15.0761,15.6173 c -0.0756,0.18275 -0.0954,0.3838 -0.0569,0.5778 0.0386,0.19395 0.13385,0.37215 0.2737,0.512 0.13985,0.13985 0.31805,0.2351 0.512,0.2737 0.194,0.03855 0.39505,0.01875 0.5778,-0.0569 0.1827,-0.0757 0.3389,-0.2039 0.44875,-0.36835 C 16.94135,16.3911 17,16.1978 17,16 17,15.7348 16.89465,15.48045 16.7071,15.2929 16.51955,15.10535 16.2652,15 16,15 Z M 13,9 C 12.8022,9 12.6089,9.05865 12.44445,9.16855 12.28,9.2784 12.1518,9.4346 12.0761,9.6173 c -0.0757,0.18275 -0.0955,0.3838 -0.0569,0.5778 0.0386,0.19395 0.13385,0.37215 0.2737,0.512 0.13985,0.13985 0.31805,0.2351 0.512,0.2737 0.194,0.03855 0.39505,0.01875 0.5778,-0.0569 0.1827,-0.0757 0.3389,-0.2039 0.44875,-0.36835 C 13.94135,10.3911 14,10.1978 14,10 14,9.7348 13.89465,9.48045 13.7071,9.2929 13.51955,9.10535 13.2652,9 13,9 Z M 7,9 H 4 C 3.734785,9 3.48043,9.10535 3.292895,9.2929 3.105355,9.48045 3,9.7348 3,10 3,10.2652 3.105355,10.51955 3.292895,10.7071 3.48043,10.89465 3.734785,11 4,11 H 7 C 7.2652,11 7.51955,10.89465 7.7071,10.7071 7.89465,10.51955 8,10.2652 8,10 8,9.7348 7.89465,9.48045 7.7071,9.2929 7.51955,9.10535 7.2652,9 7,9 Z M 16,3 C 15.8022,3 15.6089,3.05865 15.44445,3.16853 15.28,3.27841 15.1518,3.43459 15.0761,3.617315 15.00045,3.800045 14.98065,4.00111 15.0192,4.19509 c 0.0386,0.19398 0.13385,0.372165 0.2737,0.512015 0.13985,0.139855 0.31805,0.235095 0.512,0.27368 0.194,0.038565 0.39505,0.01878 0.5778,-0.056905 C 16.5654,4.84819 16.7216,4.72002 16.83145,4.55557 16.94135,4.39112 17,4.19778 17,4 17,3.734785 16.89465,3.48043 16.7071,3.292895 16.51955,3.105355 16.2652,3 16,3 Z m 0,6 C 15.8022,9 15.6089,9.05865 15.44445,9.16855 15.28,9.2784 15.1518,9.4346 15.0761,9.6173 c -0.0756,0.18275 -0.0954,0.3838 -0.0569,0.5778 0.0386,0.19395 0.13385,0.37215 0.2737,0.512 0.13985,0.13985 0.31805,0.2351 0.512,0.2737 0.194,0.03855 0.39505,0.01875 0.5778,-0.0569 0.1827,-0.0757 0.3389,-0.2039 0.44875,-0.36835 C 16.94135,10.3911 17,10.1978 17,10 17,9.7348 16.89465,9.48045 16.7071,9.2929 16.51955,9.10535 16.2652,9 16,9 Z M 20,3 C 20,2.20435 19.68395,1.44129 19.1213,0.87868 18.5587,0.3160705 17.79565,0 17,0 H 3 C 2.20435,0 1.44129,0.3160705 0.87868,0.87868 0.3160705,1.44129 0,2.20435 0,3 V 5 C 0.00441061,5.74005 0.282211,6.45235 0.78,7 0.282211,7.54765 0.00441061,8.25995 0,9 v 2 c 0.00441061,0.74005 0.282211,1.45235 0.78,2 C 0.282211,13.54765 0.00441061,14.25995 0,15 v 2 c 0,0.79565 0.3160705,1.5587 0.87868,2.1213 C 1.44129,19.68395 2.20435,20 3,20 h 14 c 0.79565,0 1.5587,-0.31605 2.1213,-0.8787 C 19.68395,18.5587 20,17.79565 20,17 V 15 C 19.9956,14.25995 19.7178,13.54765 19.22,13 19.7178,12.45235 19.9956,11.74005 20,11 V 9 C 19.9956,8.25995 19.7178,7.54765 19.22,7 19.7178,6.45235 19.9956,5.74005 20,5 Z m -2,14 c 0,0.2652 -0.10535,0.51955 -0.2929,0.7071 C 17.51955,17.89465 17.2652,18 17,18 H 3 C 2.734785,18 2.48043,17.89465 2.292895,17.7071 2.105355,17.51955 2,17.2652 2,17 V 15 C 2,14.7348 2.105355,14.48045 2.292895,14.2929 2.48043,14.10535 2.734785,14 3,14 h 14 c 0.2652,0 0.51955,0.10535 0.7071,0.2929 C 17.89465,14.48045 18,14.7348 18,15 Z m 0,-6 c 0,0.2652 -0.10535,0.51955 -0.2929,0.7071 C 17.51955,11.89465 17.2652,12 17,12 H 3 C 2.734785,12 2.48043,11.89465 2.292895,11.7071 2.105355,11.51955 2,11.2652 2,11 V 9 C 2,8.7348 2.105355,8.48045 2.292895,8.2929 2.48043,8.10535 2.734785,8 3,8 h 14 c 0.2652,0 0.51955,0.10535 0.7071,0.2929 C 17.89465,8.48045 18,8.7348 18,9 Z M 18,5 C 18,5.2652 17.89465,5.51955 17.7071,5.7071 17.51955,5.89465 17.2652,6 17,6 H 3 C 2.734785,6 2.48043,5.89465 2.292895,5.7071 2.105355,5.51955 2,5.2652 2,5 V 3 C 2,2.734785 2.105355,2.48043 2.292895,2.292895 2.48043,2.105355 2.734785,2 3,2 h 14 c 0.2652,0 0.51955,0.105355 0.7071,0.292895 C 17.89465,2.48043 18,2.734785 18,3 Z M 13,3 C 12.8022,3 12.6089,3.05865 12.44445,3.16853 12.28,3.27841 12.1518,3.43459 12.0761,3.617315 12.00045,3.800045 11.98065,4.00111 12.0192,4.19509 c 0.0386,0.19398 0.13385,0.372165 0.2737,0.512015 0.13985,0.139855 0.31805,0.235095 0.512,0.27368 0.194,0.038565 0.39505,0.01878 0.5778,-0.056905 C 13.5654,4.84819 13.7216,4.72002 13.83145,4.55557 13.94135,4.39112 14,4.19778 14,4 14,3.734785 13.89465,3.48043 13.7071,3.292895 13.51955,3.105355 13.2652,3 13,3 Z M 7,3 H 4 C 3.734785,3 3.48043,3.105355 3.292895,3.292895 3.105355,3.48043 3,3.734785 3,4 3,4.265215 3.105355,4.51957 3.292895,4.707105 3.48043,4.894645 3.734785,5 4,5 H 7 C 7.2652,5 7.51955,4.894645 7.7071,4.707105 7.89465,4.51957 8,4.265215 8,4 8,3.734785 7.89465,3.48043 7.7071,3.292895 7.51955,3.105355 7.2652,3 7,3 Z" />
</svg>
