<?xml version="1.0" encoding="UTF-8" standalone="no"?>
<svg
   xmlns:dc="http://purl.org/dc/elements/1.1/"
   xmlns:cc="http://creativecommons.org/ns#"
   xmlns:rdf="http://www.w3.org/1999/02/22-rdf-syntax-ns#"
   xmlns:svg="http://www.w3.org/2000/svg"
   xmlns="http://www.w3.org/2000/svg"
   xmlns:sodipodi="http://sodipodi.sourceforge.net/DTD/sodipodi-0.dtd"
   xmlns:inkscape="http://www.inkscape.org/namespaces/inkscape"
   viewBox="0 0 20 20"
   version="1.1"
   id="svg4"
   sodipodi:docname="api.svg"
   inkscape:version="1.0 (4035a4fb49, 2020-05-01)">
  <metadata
     id="metadata10">
    <rdf:RDF>
      <cc:Work
         rdf:about="">
        <dc:format>image/svg+xml</dc:format>
        <dc:type
           rdf:resource="http://purl.org/dc/dcmitype/StillImage" />
      </cc:Work>
    </rdf:RDF>
  </metadata>
  <defs
     id="defs8" />
  <sodipodi:namedview
     inkscape:document-rotation="0"
     pagecolor="#ffffff"
     bordercolor="#666666"
     borderopacity="1"
     objecttolerance="10"
     gridtolerance="10"
     guidetolerance="10"
     inkscape:pageopacity="0"
     inkscape:pageshadow="2"
     inkscape:window-width="1920"
     inkscape:window-height="1017"
     id="namedview6"
     showgrid="false"
     inkscape:zoom="22.627417"
     inkscape:cx="10.757737"
     inkscape:cy="14.44314"
     inkscape:window-x="1912"
     inkscape:window-y="-8"
     inkscape:window-maximized="1"
     inkscape:current-layer="g7" />
  <g
     style="fill:#ff6680;fill-opacity:1"
     transform="matrix(0.34883924,0,0,0.34883315,-3.2743673,-4.2217742)"
     id="g7">
    <path
       id="path833-6-1"
       style="fill:#ffffff;fill-opacity:1;fill-rule:evenodd;stroke:#df9300;stroke-width:0;stroke-miterlimit:4;stroke-dasharray:none;stroke-opacity:1;paint-order:stroke markers fill"
       d="M 9.2929688 0 C 8.7613428 0 8.3339844 0.42736858 8.3339844 0.95898438 L 8.3339844 2.1757812 A 8.0000007 7.9999986 0 0 0 5.6464844 3.2890625 L 4.703125 2.3457031 C 4.3272158 1.9697939 3.7216122 1.9697939 3.3457031 2.3457031 L 2.3457031 3.3457031 C 1.969794 3.7216123 1.969794 4.3272157 2.3457031 4.703125 L 3.2890625 5.6464844 A 8.0000007 7.9999986 0 0 0 2.1757812 8.3339844 L 0.95898438 8.3339844 C 0.42735923 8.3339844 -1.0362082e-15 8.761353 0 9.2929688 L 0 10.707031 C 0 11.238647 0.42735923 11.666016 0.95898438 11.666016 L 2.1757812 11.666016 A 8.0000007 7.9999986 0 0 0 3.1796875 14.177734 L 2.3457031 15.011719 C 1.9697942 15.387628 1.9697942 15.993232 2.3457031 16.369141 L 3.3457031 17.369141 C 3.7216123 17.74505 4.3272161 17.74505 4.703125 17.369141 L 5.4765625 16.595703 A 8.0000007 7.9999986 0 0 0 8.3339844 17.824219 L 8.3339844 19.041016 C 8.3339844 19.572631 8.7613432 20 9.2929688 20 L 10.707031 20 C 11.238656 20 11.666016 19.572631 11.666016 19.041016 L 11.666016 17.824219 A 8.0000007 7.9999986 0 0 0 14.273438 16.763672 L 15.232422 17.722656 C 15.608331 18.098566 16.213935 18.098565 16.589844 17.722656 L 17.589844 16.722656 C 17.965753 16.346747 17.965753 15.741144 17.589844 15.365234 L 16.658203 14.433594 A 8.0000007 7.9999986 0 0 0 17.822266 11.666016 L 19.041016 11.666016 C 19.572641 11.666016 20 11.238647 20 10.707031 L 20 9.2929688 C 20 8.761353 19.572641 8.3339844 19.041016 8.3339844 L 17.824219 8.3339844 A 8.0000007 7.9999986 0 0 0 16.5 5.3359375 L 17.369141 4.4667969 C 17.74505 4.0908876 17.74505 3.4852843 17.369141 3.109375 L 16.369141 2.109375 C 16.181186 1.9214204 15.934744 1.828125 15.689453 1.828125 C 15.444162 1.828125 15.199673 1.9214204 15.011719 2.109375 L 14.03125 3.0898438 A 8.0000007 7.9999986 0 0 0 11.666016 2.1777344 L 11.666016 0.95898438 C 11.666016 0.42736858 11.238656 1.3322676e-15 10.707031 0 L 9.2929688 0 z M 6.1210938 7.1347656 L 6.9375 7.1347656 L 9.0234375 12.238281 L 9.28125 12.861328 L 8.4179688 12.861328 L 8.2832031 12.503906 L 7.7304688 11.126953 L 5.3925781 11.126953 L 4.75 12.800781 L 4.7480469 12.800781 L 4.7265625 12.861328 L 3.921875 12.861328 L 4.0488281 12.53125 L 6.1210938 7.1347656 z M 9.8945312 7.1347656 L 10.644531 7.1347656 L 12.238281 7.1347656 L 12.59375 7.1347656 L 12.675781 7.1347656 C 13.554406 7.1347656 14.261719 7.8420939 14.261719 8.7207031 L 14.261719 8.9472656 C 14.261719 9.8258752 13.554406 10.533203 12.675781 10.533203 L 12.59375 10.533203 L 12.238281 10.533203 L 10.644531 10.529297 L 10.644531 12.916016 L 9.8945312 12.916016 L 9.8945312 7.1347656 z M 15.375 7.1347656 L 16.125 7.1347656 L 16.125 12.916016 L 15.375 12.916016 L 15.375 7.1347656 z M 6.5351562 8.1445312 L 5.6289062 10.509766 L 7.484375 10.509766 L 6.5351562 8.1445312 z "
       transform="matrix(2.86665,0,0,2.8667,9.386465,12.10256)" />
    <path
       d="m 39.963442,34.078683 v 3.12542 0.446487 3.12542 h 3.755147 0.841674 0.194228 c 2.08039,0 3.75515,-1.393937 3.75515,-3.12542 v -0.446487 c 0,-1.731483 -1.67476,-3.12542 -3.75515,-3.12542 h -0.194228 -0.841674 z"
       style="fill:#fff5ff;fill-opacity:1;stroke:#df9300;stroke-width:0;stroke-linecap:round;stroke-linejoin:bevel;stroke-miterlimit:4;stroke-dasharray:none;paint-order:markers fill stroke"
       id="rect981-2" />
  </g>
</svg>
