<?xml version="1.0" encoding="UTF-8" standalone="no"?>
<svg
   xmlns:dc="http://purl.org/dc/elements/1.1/"
   xmlns:cc="http://creativecommons.org/ns#"
   xmlns:rdf="http://www.w3.org/1999/02/22-rdf-syntax-ns#"
   xmlns:svg="http://www.w3.org/2000/svg"
   xmlns="http://www.w3.org/2000/svg"
   xmlns:sodipodi="http://sodipodi.sourceforge.net/DTD/sodipodi-0.dtd"
   xmlns:inkscape="http://www.inkscape.org/namespaces/inkscape"
   viewBox="0 0 20 20"
   version="1.1"
   id="svg4"
   sodipodi:docname="pubsub.svg"
   inkscape:version="1.0 (4035a4fb49, 2020-05-01)">
  <metadata
     id="metadata10">
    <rdf:RDF>
      <cc:Work
         rdf:about="">
        <dc:format>image/svg+xml</dc:format>
        <dc:type
           rdf:resource="http://purl.org/dc/dcmitype/StillImage" />
      </cc:Work>
    </rdf:RDF>
  </metadata>
  <defs
     id="defs8" />
  <sodipodi:namedview
     inkscape:document-rotation="0"
     pagecolor="#ffffff"
     bordercolor="#666666"
     borderopacity="1"
     objecttolerance="10"
     gridtolerance="10"
     guidetolerance="10"
     inkscape:pageopacity="0"
     inkscape:pageshadow="2"
     inkscape:window-width="1920"
     inkscape:window-height="1017"
     id="namedview6"
     showgrid="false"
     inkscape:zoom="30.052038"
     inkscape:cx="6.5014567"
     inkscape:cy="12.833759"
     inkscape:window-x="1912"
     inkscape:window-y="-8"
     inkscape:window-maximized="1"
     inkscape:current-layer="g7" />
  <g
     style="fill:#ff6680;fill-opacity:1"
     transform="matrix(0.34883924,0,0,0.34883315,-2.2760989,-3.5562619)"
     id="g7">
    <path
       transform="matrix(2.86665,0,0,2.8667,6.5247789,10.194736)"
       d="M 2.75 7.25 A 2.7499998 2.7499997 0 0 0 0 10 A 2.7499998 2.7499997 0 0 0 2.75 12.75 A 2.7499998 2.7499997 0 0 0 5.5 10 A 2.7499998 2.7499997 0 0 0 2.75 7.25 z M 2.75 8.5 A 1.4999998 1.4999997 0 0 1 4.25 10 A 1.4999998 1.4999997 0 0 1 2.75 11.5 A 1.4999998 1.4999997 0 0 1 1.25 10 A 1.4999998 1.4999997 0 0 1 2.75 8.5 z "
       style="fill:#ffffff;stroke:#df9300;stroke-width:0;stroke-linecap:round;stroke-linejoin:round;stroke-miterlimit:3.8;fill-opacity:1"
       id="path831" />
    <path
       transform="matrix(2.86665,0,0,2.8667,6.5247789,10.194736)"
       d="M 17.25 0 A 2.7499998 2.7499997 0 0 0 14.5 2.75 A 2.7499998 2.7499997 0 0 0 17.25 5.5 A 2.7499998 2.7499997 0 0 0 20 2.75 A 2.7499998 2.7499997 0 0 0 17.25 0 z M 17.25 1.25 A 1.4999998 1.4999997 0 0 1 18.75 2.75 A 1.4999998 1.4999997 0 0 1 17.25 4.25 A 1.4999998 1.4999997 0 0 1 15.75 2.75 A 1.4999998 1.4999997 0 0 1 17.25 1.25 z "
       style="fill:#ffffff;fill-opacity:1;stroke:#df9300;stroke-width:0;stroke-linecap:round;stroke-linejoin:round;stroke-miterlimit:3.8"
       id="path831-4" />
    <path
       transform="matrix(2.86665,0,0,2.8667,6.5247789,10.194736)"
       d="M 17.25 7.25 A 2.7499998 2.7499999 0 0 0 14.5 10 A 2.7499998 2.7499999 0 0 0 17.25 12.75 A 2.7499998 2.7499999 0 0 0 20 10 A 2.7499998 2.7499999 0 0 0 17.25 7.25 z M 17.25 8.5 A 1.4999998 1.4999997 0 0 1 18.75 10 A 1.4999998 1.4999997 0 0 1 17.25 11.5 A 1.4999998 1.4999997 0 0 1 15.75 10 A 1.4999998 1.4999997 0 0 1 17.25 8.5 z "
       style="fill:#ffffff;fill-opacity:1;stroke:#df9300;stroke-width:0;stroke-linecap:round;stroke-linejoin:round;stroke-miterlimit:3.8"
       id="path831-4-1" />
    <path
       transform="matrix(2.86665,0,0,2.8667,6.5247789,10.194736)"
       d="M 17.25 14.5 A 2.7499998 2.7499997 0 0 0 14.5 17.25 A 2.7499998 2.7499997 0 0 0 17.25 20 A 2.7499998 2.7499997 0 0 0 20 17.25 A 2.7499998 2.7499997 0 0 0 17.25 14.5 z M 17.25 15.75 A 1.4999998 1.4999997 0 0 1 18.75 17.25 A 1.4999998 1.4999997 0 0 1 17.25 18.75 A 1.4999998 1.4999997 0 0 1 15.75 17.25 A 1.4999998 1.4999997 0 0 1 17.25 15.75 z "
       style="fill:#ffffff;fill-opacity:1;stroke:#df9300;stroke-width:0;stroke-linecap:round;stroke-linejoin:round;stroke-miterlimit:3.8"
       id="path831-4-1-3" />
    <path
       transform="matrix(2.86665,0,0,2.8667,6.5247789,10.194736)"
       d="M 9.6992188 7 A 3 2.9999998 0 0 0 6.75 10 A 3 2.9999998 0 0 0 9.75 13 A 3 2.9999998 0 0 0 12.75 10 A 3 2.9999998 0 0 0 9.75 7 A 3 2.9999998 0 0 0 9.6992188 7 z M 9.75 8.5 A 1.4999998 1.4999997 0 0 1 11.25 10 A 1.4999998 1.4999997 0 0 1 9.75 11.5 A 1.4999998 1.4999997 0 0 1 8.25 10 A 1.4999998 1.4999997 0 0 1 9.75 8.5 z "
       style="fill:#ffffff;fill-opacity:1;stroke:#df9300;stroke-width:0;stroke-linecap:round;stroke-linejoin:round;stroke-miterlimit:3.8"
       id="path831-0" />
    <path
       transform="matrix(2.86665,0,0,2.8667,6.5247789,10.194736)"
       d="M 5.3105469 9 A 2.7499998 2.7499997 0 0 1 5.5 10 A 2.7499998 2.7499997 0 0 1 5.3105469 11 L 6.9238281 11 A 3 2.9999998 0 0 1 6.75 10 A 3 2.9999998 0 0 1 6.921875 9 L 5.3105469 9 z "
       style="fill:#cbcbcb;fill-opacity:1;stroke:#ffffff;stroke-width:0;stroke-linecap:round;stroke-linejoin:round;stroke-miterlimit:3.8;stroke-opacity:1"
       id="rect899" />
    <path
       transform="matrix(2.86665,0,0,2.8667,6.5247789,10.194736)"
       d="M 12.576172 9 A 3 2.9999998 0 0 1 12.75 10 A 3 2.9999998 0 0 1 12.578125 11 L 14.689453 11 A 2.7499998 2.75 0 0 1 14.5 10 A 2.7499998 2.75 0 0 1 14.689453 9 L 12.576172 9 z "
       style="fill:#cbcbcb;fill-opacity:1;stroke:#ffffff;stroke-width:0;stroke-linecap:round;stroke-linejoin:round;stroke-miterlimit:3.8;stroke-opacity:1"
       id="rect899-4" />
    <path
       transform="matrix(2.86665,0,0,2.8667,6.5247789,10.194736)"
       d="M 14.744141 3.8828125 L 11.234375 7.3945312 A 3 2.9999998 0 0 1 12.544922 8.9121094 L 16.173828 5.28125 A 2.7499998 2.7499997 0 0 1 14.744141 3.8828125 z "
       style="fill:#cbcbcb;fill-opacity:1;stroke:#ffffff;stroke-width:0;stroke-linecap:round;stroke-linejoin:round;stroke-miterlimit:3.8;stroke-opacity:1"
       id="rect899-7-3" />
    <path
       transform="matrix(2.86665,0,0,2.8667,6.5247789,10.194736)"
       d="M 12.412109 11.382812 A 3 2.9999998 0 0 1 10.949219 12.748047 L 14.626953 16.425781 A 2.7499998 2.7499997 0 0 1 15.890625 14.861328 L 12.412109 11.382812 z "
       style="fill:#cbcbcb;fill-opacity:1;stroke:#ffffff;stroke-width:0;stroke-linecap:round;stroke-linejoin:round;stroke-miterlimit:3.8;stroke-opacity:1"
       id="rect899-7-3-1" />
  </g>
</svg>
